<svg width="24" height="21" viewBox="0 0 24 21" fill="none" xmlns="http://www.w3.org/2000/svg">
<path d="M12 0.333374C16.2253 0.333374 18.6213 3.13071 18.9693 6.50671H19.076C19.7219 6.50566 20.3617 6.6319 20.9588 6.87823C21.5559 7.12457 22.0986 7.48615 22.5559 7.94232C23.0132 8.3985 23.3761 8.94032 23.6239 9.53681C23.8717 10.1333 23.9995 10.7728 24 11.4187C23.9993 12.0645 23.8714 12.7038 23.6235 13.3002C23.3756 13.8965 23.0127 14.4382 22.5554 14.8942C22.0982 15.3503 21.5555 15.7117 20.9585 15.958C20.3615 16.2042 19.7218 16.3304 19.076 16.3294H18.3L16.1907 19.8414C16.0639 20.0606 15.8586 20.2236 15.6163 20.2974C15.374 20.3712 15.1128 20.3503 14.8853 20.2389C14.6578 20.1275 14.4811 19.934 14.3907 19.6974C14.3004 19.4607 14.3032 19.1987 14.3987 18.964L14.4587 18.8414L15.9907 16.3294H13.1427L11.0333 19.8414C10.9065 20.0606 10.7013 20.2236 10.459 20.2974C10.2167 20.3712 9.95542 20.3503 9.72794 20.2389C9.50046 20.1275 9.32372 19.934 9.2334 19.6974C9.14308 19.4607 9.14592 19.1987 9.24133 18.964L9.30133 18.8414L10.8333 16.3294H7.984L5.87467 19.84C5.74674 20.057 5.54165 20.2177 5.30039 20.29C5.05913 20.3623 4.79947 20.3409 4.57329 20.2301C4.34712 20.1193 4.17109 19.9272 4.08038 19.6923C3.98967 19.4573 3.99096 19.1968 4.084 18.9627L4.14267 18.84L5.67467 16.328H4.924C4.2782 16.3291 3.63852 16.2029 3.0415 15.9566C2.44449 15.7104 1.90185 15.3489 1.44458 14.8929C0.987306 14.4369 0.624369 13.8952 0.376503 13.2989C0.128637 12.7025 0.000699772 12.0632 0 11.4174C0.000874886 10.7718 0.128898 10.1327 0.376758 9.53661C0.624619 8.94051 0.987464 8.39906 1.44458 7.94319C1.90169 7.48731 2.44411 7.12594 3.04089 6.87969C3.63766 6.63345 4.27709 6.50716 4.92267 6.50804H5.02933C5.38133 3.10671 7.776 0.333374 12 0.333374ZM12 2.33071C9.23867 2.33071 6.83067 4.50937 6.83067 7.51737C6.83067 7.99337 6.40533 8.36671 5.91867 8.36671H4.99867C3.31733 8.36671 1.95333 9.70271 1.95333 11.3494C1.95333 12.996 3.31733 14.3307 4.99867 14.3307H19.0027C20.6827 14.3307 22.0467 12.996 22.0467 11.3494C22.0467 9.70271 20.6827 8.36671 19.0013 8.36671H18.0813C17.5947 8.36671 17.1693 7.99337 17.1693 7.51737C17.1693 4.47071 14.7613 2.33071 12 2.33071V2.33071Z" fill="white"/>
</svg>
