<svg width="14" height="28" viewBox="0 0 14 28" fill="none" xmlns="http://www.w3.org/2000/svg">
<path d="M7 0.666626C8.10664 0.666534 9.17137 1.08983 9.97587 1.8497C10.7804 2.60958 11.2637 3.64845 11.3267 4.75329L11.3333 4.99996L11.3347 15.6026L11.4413 15.6946C12.6839 16.8024 13.466 18.3357 13.6333 19.992L13.6587 20.328L13.6667 20.6666C13.6669 21.765 13.3956 22.8465 12.8771 23.8148C12.3586 24.7832 11.6089 25.6084 10.6946 26.2171C9.78024 26.8258 8.72968 27.1992 7.63628 27.304C6.54287 27.4089 5.4405 27.2419 4.42718 26.818C3.41385 26.3941 2.52097 25.7264 1.82791 24.8742C1.13485 24.022 0.663087 23.0118 0.454566 21.9334C0.246045 20.8549 0.307226 19.7417 0.632669 18.6926C0.958113 17.6435 1.53773 16.691 2.32 15.92L2.56 15.6933L2.66534 15.6026L2.66667 4.99996C2.66645 3.93503 3.05837 2.90731 3.76764 2.11295C4.47691 1.31859 5.45385 0.81322 6.512 0.693293L6.75467 0.673293L7 0.666626ZM7 2.66663C6.4142 2.66668 5.84986 2.88707 5.41906 3.28402C4.98826 3.68098 4.72254 4.22545 4.67467 4.80929L4.66667 4.99996V16.592L4.25467 16.892C3.46751 17.4645 2.87909 18.2689 2.57178 19.1925C2.26447 20.1161 2.25366 21.1127 2.54084 22.0427C2.82803 22.9727 3.39884 23.7897 4.17338 24.3792C4.94793 24.9688 5.88742 25.3014 6.86036 25.3304C7.8333 25.3595 8.79099 25.0836 9.59935 24.5414C10.4077 23.9992 11.0263 23.2178 11.3685 22.3065C11.7107 21.3953 11.7594 20.3999 11.5078 19.4596C11.2562 18.5193 10.7169 17.6812 9.96534 17.0626L9.74534 16.8933L9.336 16.5933L9.33334 4.99996C9.33334 4.38112 9.0875 3.78763 8.64992 3.35004C8.21233 2.91246 7.61884 2.66663 7 2.66663V2.66663ZM7 8.66663C7.26522 8.66663 7.51957 8.77198 7.70711 8.95952C7.89465 9.14706 8 9.40141 8 9.66663V17.4866C8.76008 17.7256 9.40949 18.2287 9.83066 18.9051C10.2518 19.5814 10.4169 20.3861 10.2961 21.1737C10.1752 21.9612 9.77638 22.6794 9.17177 23.1983C8.56716 23.7172 7.79675 24.0025 7 24.0025C6.20326 24.0025 5.43284 23.7172 4.82824 23.1983C4.22363 22.6794 3.82479 21.9612 3.70393 21.1737C3.58306 20.3861 3.74817 19.5814 4.16934 18.9051C4.59052 18.2287 5.23993 17.7256 6 17.4866V9.66663C6 9.40141 6.10536 9.14706 6.2929 8.95952C6.48043 8.77198 6.73479 8.66663 7 8.66663V8.66663Z" fill="white"/>
</svg>
