<svg width="25" height="24" viewBox="0 0 25 24" fill="none" xmlns="http://www.w3.org/2000/svg">
<path d="M9.983 24C10.1857 24.0033 10.3846 23.9449 10.5534 23.8326C10.7222 23.7202 10.8528 23.5593 10.928 23.371L14.769 13.77L24.371 9.92899C24.5567 9.85479 24.7159 9.72661 24.8281 9.561C24.9402 9.3954 25.0001 9.19998 25 8.99999L25 8.98398C24.9968 8.78145 24.9322 8.58466 24.8147 8.41966C24.6972 8.25466 24.5324 8.12924 24.342 8.05999L2.342 0.0599851C2.16303 -0.00550286 1.96906 -0.0184831 1.78296 0.0225706C1.59685 0.0636242 1.42636 0.157003 1.29154 0.291711C1.15673 0.426418 1.06322 0.596843 1.02202 0.782916C0.980821 0.968989 0.993651 1.16296 1.059 1.34198L9.059 23.342C9.12843 23.5324 9.25404 23.6973 9.41921 23.8148C9.58438 23.9323 9.78133 23.9969 9.984 24L9.983 24Z" fill="white"/>
</svg>
